<svg width="114" height="24" viewBox="0 0 114 24" fill="none" xmlns="http://www.w3.org/2000/svg">
<g clip-path="url(#clip0_45_2)">
<path d="M0.0937008 23.9219C-4.91738e-05 23.8516 -0.00395542 23.6406 0.00776333 21.3672L0.0233883 18.8906L3.32417 18.8711L6.62886 18.8594L6.66401 18.9922C6.68354 19.0703 6.69917 20.1914 6.69917 21.4922C6.69917 23.2461 6.68354 23.8672 6.62886 23.9219C6.52339 24.0273 0.238232 24.0234 0.0937008 23.9219Z" fill="black"/>
<path d="M9.67969 23.8906C9.62501 23.75 9.62501 19.2891 9.68751 19.0859L9.72657 18.9258L11.4375 18.9062L13.1523 18.8906L13.3711 18.7227C13.4922 18.6289 13.6328 18.4922 13.6797 18.4062C13.8125 18.2148 13.8516 17.3281 13.793 15.9258C13.75 14.8086 13.75 14.8008 13.5625 14.4922C13.4609 14.3203 13.2656 14.0898 13.1211 13.9844L12.875 13.793H10.1016C7.67969 13.7891 7.31641 13.7734 7.24219 13.6992C7.15626 13.6133 7.14063 13.25 7.11719 11.0234C7.09376 8.96875 7.07032 8.41406 7.00391 8.29688C6.83204 7.98438 6.57032 7.70703 6.28126 7.51562L5.97657 7.31641L3.08204 7.33594C0.457036 7.34766 0.179693 7.33594 0.0898492 7.24609C5.41657e-06 7.15625 -0.00390084 6.83203 0.00781791 3.64062C0.0195366 1.70703 0.0468804 0.109375 0.0703179 0.078125C0.148443 0.0078125 7.1211 -0.0195312 7.19532 0.0546875C7.23047 0.0898438 7.26563 1.09766 7.27735 2.81641C7.28907 4.30469 7.31251 5.65625 7.32813 5.83203C7.35547 6.08594 7.41407 6.20312 7.67969 6.54688C8.23047 7.25781 8.04298 7.21094 10.6172 7.22656L12.8477 7.24609L13.168 6.98828C13.5664 6.67187 13.8594 6.33984 13.9648 6.07422C14.0352 5.91406 14.0469 5.35547 14.043 3.09766C14.0352 0.542969 14.043 0.304688 14.1367 0.160156L14.2383 0H28.6914L29.0625 0.347656L29.4297 0.691406L29.4414 3.34375C29.4688 6.98828 29.4688 6.97266 29.2539 7.1875C29.1289 7.31641 29.0039 7.37109 28.7969 7.39453C28.6406 7.41406 26.457 7.41406 23.9414 7.38281C21.4297 7.35938 18.3867 7.34766 17.1758 7.35156L14.9805 7.37109L14.7539 7.51562C14.5039 7.66797 14.2188 8.02734 14.082 8.35156C14.0195 8.51172 14 8.98828 14 10.7656V12.9805L14.207 13.293C14.418 13.6094 14.7539 13.875 15.1289 14.0312C15.3008 14.1016 15.9102 14.1172 18.6406 14.1172C21.2695 14.1172 21.9648 14.1328 22.0234 14.1914C22.0859 14.2539 22.1094 15.1914 22.1211 18.9023C22.1328 23.0625 22.125 23.5469 22.0352 23.6758C21.8281 24.0039 22.0195 23.9922 15.6328 23.9922C10.0586 23.9922 9.72266 23.9883 9.67969 23.8906Z" fill="black"/>
<path d="M28.7032 22.3203C27.4297 22.0547 26.4297 21.3125 26.0586 20.3711C25.6524 19.3203 25.6641 19.4922 25.6641 15.6445V12.1523L25.8516 12.1054C26.0469 12.0508 29.9844 11.9414 30.1485 11.9844C30.2266 12.0039 30.25 12.1289 30.2813 12.6367C30.3047 12.9765 30.3321 13.2851 30.3555 13.3164C30.3985 13.3867 37.6797 13.3867 37.793 13.3164C37.8594 13.2734 37.875 13.082 37.8633 12.3789C37.8516 11.3984 37.8008 11.2383 37.4258 10.9687C37.2344 10.832 37.2344 10.832 34.8516 10.832C33.5391 10.832 32.4453 10.8086 32.418 10.7851C32.3946 10.7539 32.3633 9.95701 32.3516 8.99998C32.3399 7.65232 32.3516 7.24998 32.4063 7.21482C32.4453 7.19139 33.836 7.16795 35.4844 7.16404C38.6524 7.15623 39.1993 7.19139 40.0235 7.45311C41.3711 7.87107 42.1368 8.70311 42.4219 10.0586C42.5235 10.5273 42.543 10.8789 42.5547 12.8633L42.5664 15.1289L42.4063 15.5195C42.168 16.0898 41.9063 16.3359 41.2696 16.5429C41.1602 16.582 39.1719 16.5976 35.7696 16.5937L30.4453 16.5859L30.4102 16.789C30.3868 16.9023 30.3828 17.2969 30.3946 17.6679L30.4102 18.3281L30.6836 18.5898C30.9024 18.8008 31.0118 18.8554 31.2657 18.8906C31.4375 18.914 34.0078 18.9258 36.9727 18.914C41.7227 18.8906 42.3828 18.9023 42.4297 18.9804C42.4649 19.0273 42.4883 19.7734 42.4883 20.6875C42.4883 22.1719 42.4805 22.3164 42.3868 22.3594C42.3282 22.3867 39.3438 22.4179 35.7539 22.4219C29.5743 22.4336 29.1953 22.4297 28.7032 22.3203Z" fill="black"/>
<path d="M56.4883 22.3984C56.2617 22.3828 56.2031 22.3516 56.1719 22.2461C56.1562 22.1719 56.1367 19.9961 56.1328 17.3984C56.125 14.8086 56.1094 12.2813 56.0859 11.7891L56.0508 10.8906L55.8125 10.832C55.6797 10.8047 55.5391 10.75 55.5039 10.7266C55.4453 10.6914 55.4258 10.2774 55.4258 9.00782V7.33986H55.5938C55.6797 7.33986 55.8164 7.30079 55.8906 7.24611C56.0195 7.15626 56.0195 7.14454 56.0195 5.38282C56.0195 4.05861 56.043 3.50392 56.1094 3.19142C56.2812 2.37111 56.8398 1.50001 57.4141 1.15626C57.8477 0.906262 58.625 0.675793 59.2852 0.597668C59.9961 0.511731 65.7695 0.531262 65.8516 0.613293C65.9297 0.699231 65.9492 4.23048 65.8672 4.33204C65.8125 4.40626 65.4023 4.41798 63.5312 4.41798C61.0703 4.41798 61.1875 4.39845 60.9141 4.76954C60.7734 4.97267 60.7656 5.00001 60.7656 5.9922C60.7656 6.5547 60.793 7.04298 60.8164 7.07814C60.8438 7.12501 61.5547 7.15626 63.0625 7.1797C64.2812 7.19923 65.3086 7.23439 65.3438 7.25782C65.4688 7.33595 65.332 10.7149 65.1953 10.8438C65.1719 10.875 64.1797 10.8985 62.9922 10.9102L60.8398 10.9297L60.7969 13.3594C60.7734 14.6953 60.7656 17.2422 60.7852 19.0234C60.8164 21.8633 60.8086 22.2734 60.7305 22.3516C60.6562 22.4297 60.3594 22.4414 58.7031 22.4297C57.6328 22.4219 56.6367 22.4102 56.4883 22.3984Z" fill="black"/>
<path d="M69.3711 22.3203C68.4453 22.1211 67.6406 21.7266 67.2344 21.2656C66.9453 20.9297 66.5664 20.1719 66.4219 19.6367C66.3281 19.2852 66.3164 18.8594 66.3164 14.9219C66.3164 10.6484 66.3164 10.5899 66.4453 10.0274C66.7148 8.91016 67.332 8.00782 68.0625 7.67579C68.5938 7.43751 69.2734 7.28907 70.0273 7.25782C71.4844 7.18751 78.793 7.16407 79.5156 7.22266C80.4727 7.30079 81.1055 7.49219 81.6875 7.88282C82.2266 8.25001 82.4883 8.54688 82.793 9.14454C83.207 9.98048 83.2305 10.1602 83.2305 12.8906C83.2305 15.2305 83.2266 15.3164 83.1055 15.582C82.875 16.0664 82.3359 16.5078 81.8789 16.5703C81.7422 16.5859 79.2383 16.6094 76.3164 16.6172L71.0039 16.6211L70.9883 17.3399C70.9805 17.7305 70.9883 18.1211 71.0039 18.1992C71.0586 18.4063 71.4844 18.7891 71.707 18.832C71.8125 18.8438 74.3828 18.8672 77.4258 18.8789C80.4727 18.8828 82.9805 18.9141 83.0039 18.9453C83.0273 18.9688 83.0586 19.7188 83.0703 20.6133C83.0898 22.0664 83.082 22.2578 82.9922 22.3477C82.9023 22.4336 82.3516 22.4414 76.3867 22.4336C70.3359 22.4297 69.8398 22.4219 69.3711 22.3203ZM78.4414 13.2969C78.543 13.1953 78.5352 11.543 78.4336 11.3399C78.3945 11.2617 78.2461 11.1133 78.1094 11.0195L77.8555 10.832L74.7266 10.8516L71.5977 10.8633L71.332 11.0313C71.1836 11.1211 71.0352 11.2617 70.9922 11.3399C70.9102 11.5 70.8906 12.3086 70.957 12.9688L70.9922 13.3711H74.6797C77.4727 13.3711 78.3867 13.3516 78.4414 13.2969Z" fill="black"/>
<path d="M85.3087 22.3984C85.1485 22.3867 84.9805 22.3477 84.9415 22.3086C84.8751 22.2617 84.8633 21.082 84.879 16.2695C84.8985 9.62891 84.879 9.92579 85.3087 9.04298C85.711 8.19532 86.3126 7.71094 87.3672 7.39063C87.793 7.25782 87.8673 7.25782 91.6407 7.23438C95.3985 7.21485 95.4805 7.21485 95.5391 7.33594C95.6173 7.47657 95.5391 8.30079 95.336 9.48829C95.254 9.96876 95.1876 10.4375 95.1876 10.5352C95.1876 10.6367 95.1485 10.7773 95.0938 10.8516L95.004 10.9805H92.7032C91.4337 10.9805 90.3165 11 90.2227 11.0195C90.1251 11.0352 89.9141 11.168 89.754 11.3086L89.461 11.5664L89.4258 16.9219C89.4024 20.9961 89.3751 22.2852 89.3204 22.3399C89.2657 22.3945 88.7735 22.4102 87.4258 22.418C86.4219 22.418 85.4727 22.4102 85.3087 22.3984Z" fill="black"/>
<path d="M99.6328 22.3515C98.2109 22.0898 97.1875 21.3008 96.7382 20.1133C96.3945 19.2187 96.3711 18.832 96.3867 14.5273L96.4101 10.6523L96.5664 10.0625C96.75 9.3945 97.1132 8.67185 97.4336 8.33982C97.8711 7.88278 98.5117 7.56638 99.4375 7.36325C99.8554 7.2695 100.41 7.25778 104.598 7.22653L109.285 7.19138L109.301 3.89841C109.312 0.83591 109.32 0.597628 109.422 0.542941C109.582 0.46091 113.82 0.453097 113.918 0.542941C113.992 0.597628 114.004 1.92966 113.996 9.21482C113.996 13.9414 113.973 18.1797 113.945 18.6211C113.883 19.539 113.789 19.9648 113.492 20.5742C113.078 21.4453 112.414 21.9648 111.301 22.2734C110.828 22.4101 110.828 22.4101 105.457 22.4218C101.066 22.4297 100.004 22.4179 99.6328 22.3515ZM108.898 18.6328C108.98 18.5742 109.105 18.4297 109.184 18.3242L109.312 18.125L109.301 14.5703L109.285 11.0117H101.527L101.266 11.2968L101.004 11.5898V14.7343C101.004 17.8828 101.004 17.8828 101.141 18.1445C101.215 18.289 101.375 18.4922 101.5 18.5859L101.73 18.7695L104.941 18.8008C106.707 18.8203 108.289 18.8125 108.453 18.789C108.613 18.7656 108.816 18.6914 108.898 18.6328Z" fill="black"/>
<path d="M44.8398 22.0117C44.8125 21.8047 44.7969 19.2383 44.7852 16.3047C44.7734 11.6445 44.7617 10.9688 44.6836 10.9219C44.6367 10.8906 44.3711 10.8633 44.0898 10.8633C43.8125 10.8633 43.543 10.832 43.4961 10.8047C43.418 10.7539 43.4023 10.4883 43.3906 9.125C43.3789 8.23828 43.3828 7.44141 43.4023 7.36328C43.4375 7.23438 43.4609 7.22656 44.1094 7.21094L44.7734 7.19141L44.8086 5.40234C44.832 4.41797 44.875 3.46094 44.9141 3.28125C45.2305 1.77344 45.9961 0.992188 47.4727 0.675781C47.9258 0.578125 48.3281 0.566406 51.3125 0.566406C53.1484 0.566406 54.668 0.585938 54.6836 0.609375C54.707 0.632812 54.7305 1.49219 54.7383 2.51953L54.7422 4.38672L52.3281 4.41797L49.918 4.44531L49.7656 4.58984C49.6758 4.67188 49.582 4.84766 49.543 4.97656C49.457 5.30078 49.5273 7.10938 49.6289 7.17969C49.668 7.20313 50.1797 7.22266 50.7656 7.21484C51.3555 7.21094 52.3281 7.21094 52.9258 7.21484L54.0117 7.22266L53.9883 8.94531C53.9727 10.2734 53.9492 10.6914 53.8906 10.7656C53.8164 10.8516 53.5664 10.8633 51.6797 10.8633C50.5078 10.8633 49.543 10.8672 49.5391 10.8789C49.5273 10.8867 49.5078 13.4727 49.4922 16.6211L49.4609 22.3516L47.1641 22.3711L44.875 22.3828L44.8398 22.0117Z" fill="black"/>
</g>
<defs>
<clipPath id="clip0_45_2">
<rect width="114" height="24" fill="white"/>
</clipPath>
</defs>
</svg>
