<svg width="218" height="36" viewBox="0 0 218 36" fill="none" xmlns="http://www.w3.org/2000/svg">
<g clip-path="url(#clip0_32_11)">
<path d="M18.462 1.80402L17.234 1.09302V6.99702L18.462 7.71802V1.80402ZM20.932 3.25902L19.705 2.53902V8.45102L20.932 9.16402V3.25902ZM23.381 4.70702L22.153 3.99502V9.90002L23.381 10.614V4.70702ZM2.388 10.407L3.616 11.12V6.89802L2.389 7.61002L2.388 10.407ZM1.161 9.68702V8.34402L0 9.02002L1.161 9.68702Z" fill="white"/>
<path d="M30.7709 9.036L29.5509 8.322V9.755L28.3209 10.467V7.611L27.1009 6.899V11.166L25.8739 11.88V6.155L24.6239 5.419V11.332L25.7249 11.984V23.945L25.6649 23.982L24.6249 23.378V24.597L23.3809 25.309V22.619L22.1539 21.883V26.029L20.9339 26.765V21.146L19.7039 20.413V27.478L18.4619 28.189V19.678L17.2359 18.941V28.901L16.0059 29.645V18.207L15.4069 17.805L15.4299 5.925L16.0079 6.283V0.379999L15.3619 0L14.8449 0.296V6.223L13.6029 6.935V1.03L12.3749 1.742V7.647L11.1469 8.367V2.479L9.92691 3.189V9.079L8.67691 9.793V3.913L7.45691 4.646V10.513L6.22791 11.25V5.359L4.85791 6.176V11.832L5.04591 11.939L5.09091 23.982L6.22791 24.657V23.317L7.45591 22.579V25.393L8.67591 26.113V21.844L9.92691 21.085V26.825L11.1469 27.56V20.354L12.3749 19.617V28.274L13.6029 28.994V18.874L14.8449 18.139V29.729L15.4059 30.063V30.039V35.989L30.7919 26.992L30.8149 9.035L30.7709 9.036ZM191.603 25.714V14.494H194.126V16.4H194.258C194.469 15.785 194.876 15.2563 195.417 14.895C195.956 14.529 196.601 14.346 197.351 14.346C198.109 14.346 198.748 14.5313 199.269 14.902C199.794 15.2667 200.164 15.766 200.378 16.4H200.495C200.741 15.7799 201.181 15.2563 201.75 14.908C202.343 14.5333 203.046 14.346 203.858 14.346C204.889 14.346 205.73 14.6723 206.382 15.325C207.033 15.9783 207.358 16.9307 207.359 18.182V25.713H204.712V18.59C204.712 17.894 204.527 17.3853 204.157 17.064C203.782 16.7365 203.297 16.5623 202.8 16.576C202.163 16.576 201.664 16.7753 201.304 17.174C200.95 17.568 200.773 18.0817 200.773 18.715V25.713H198.183V18.481C198.183 17.903 198.007 17.4403 197.656 17.093C197.311 16.7477 196.86 16.5747 196.301 16.574C195.935 16.5709 195.575 16.6722 195.264 16.866C194.947 17.0641 194.69 17.3448 194.52 17.678C194.33 18.053 194.234 18.469 194.242 18.89V25.713L191.603 25.714ZM185.275 25.933C184.182 25.933 183.233 25.692 182.43 25.21C181.627 24.7279 180.979 24.0259 180.563 23.187C180.125 22.3203 179.906 21.3073 179.906 20.148C179.906 18.99 180.125 17.9743 180.563 17.101C180.978 16.2592 181.626 15.5542 182.43 15.07C183.233 14.588 184.181 14.347 185.275 14.347C186.369 14.347 187.318 14.5883 188.121 15.071C188.924 15.5548 189.57 16.2605 189.981 17.103C190.424 17.9737 190.645 18.9887 190.645 20.148C190.645 21.308 190.424 22.321 189.981 23.187C189.567 24.0249 188.921 24.7269 188.121 25.21C187.318 25.6927 186.369 25.9337 185.275 25.933ZM185.289 23.817C185.883 23.817 186.379 23.654 186.777 23.328C187.176 22.996 187.473 22.5527 187.669 21.998C187.874 21.4011 187.975 20.7732 187.968 20.142C187.968 19.4553 187.868 18.8343 187.669 18.279C187.473 17.719 187.176 17.2733 186.777 16.942C186.379 16.6113 185.883 16.446 185.289 16.446C184.682 16.446 184.176 16.6113 183.773 16.942C183.373 17.272 183.074 17.7177 182.876 18.279C182.672 18.879 182.573 19.509 182.583 20.142C182.583 20.8233 182.681 21.4417 182.876 21.997C183.074 22.553 183.373 22.9963 183.773 23.327C184.176 23.653 184.682 23.8163 185.289 23.817ZM174.703 25.933C173.584 25.933 172.623 25.6873 171.821 25.196C171.024 24.7066 170.384 23.9995 169.976 23.158C169.548 22.286 169.334 21.2827 169.334 20.148C169.334 19.008 169.553 18.0023 169.99 17.131C170.398 16.2849 171.041 15.5745 171.843 15.085C172.645 14.593 173.593 14.347 174.688 14.347C175.598 14.347 176.403 14.515 177.103 14.851C177.782 15.1591 178.364 15.6466 178.787 16.261C179.207 16.8657 179.446 17.5723 179.503 18.381H176.978C176.89 17.8623 176.634 17.3869 176.249 17.028C175.87 16.6627 175.362 16.48 174.725 16.48C174.185 16.48 173.711 16.6263 173.302 16.919C172.893 17.207 172.574 17.621 172.346 18.161C172.123 18.701 172.011 19.3483 172.011 20.103C172.011 20.869 172.123 21.527 172.346 22.077C172.57 22.6217 172.884 23.043 173.287 23.341C173.696 23.6323 174.176 23.778 174.725 23.778C175.114 23.778 175.461 23.705 175.768 23.559C176.079 23.409 176.339 23.1923 176.548 22.909C176.767 22.6028 176.914 22.251 176.978 21.88H179.503C179.454 22.6317 179.213 23.3582 178.803 23.99C178.39 24.6054 177.821 25.0996 177.154 25.422C176.458 25.7627 175.641 25.9337 174.703 25.933ZM166.767 25.874C166.325 25.874 165.946 25.7183 165.63 25.407C165.476 25.2605 165.355 25.0832 165.275 24.8868C165.194 24.6904 165.156 24.4792 165.162 24.267C165.157 24.0572 165.196 23.8486 165.277 23.6548C165.357 23.4611 165.478 23.2863 165.63 23.142C165.778 22.9912 165.955 22.8721 166.15 22.7918C166.346 22.7115 166.556 22.6718 166.767 22.675C166.975 22.6733 167.181 22.7139 167.373 22.7941C167.565 22.8744 167.739 22.9927 167.884 23.142C168.145 23.3846 168.314 23.7107 168.36 24.0642C168.406 24.4177 168.328 24.7763 168.138 25.078C167.996 25.3186 167.795 25.5195 167.555 25.662C167.317 25.8041 167.044 25.8775 166.767 25.874ZM164.007 17.459L161.599 17.721C161.528 17.4702 161.406 17.2367 161.241 17.035C161.062 16.8115 160.832 16.6339 160.571 16.517C160.245 16.375 159.891 16.3074 159.535 16.319C158.985 16.319 158.523 16.4383 158.148 16.677C157.778 16.9157 157.596 17.2247 157.601 17.604C157.593 17.7557 157.622 17.907 157.684 18.0456C157.746 18.1841 157.84 18.3059 157.959 18.401C158.208 18.6063 158.616 18.7743 159.184 18.905L161.096 19.315C162.156 19.543 162.944 19.9053 163.46 20.402C163.979 20.8993 164.242 21.55 164.247 22.354C164.251 23.0285 164.033 23.6857 163.627 24.224C163.223 24.7593 162.661 25.1777 161.942 25.479C161.222 25.781 160.395 25.932 159.461 25.932C158.09 25.932 156.986 25.6447 156.149 25.07C155.312 24.4907 154.814 23.685 154.654 22.653L157.229 22.403C157.345 22.9097 157.593 23.2923 157.973 23.551C158.353 23.8097 158.847 23.9387 159.454 23.938C160.082 23.938 160.585 23.8093 160.964 23.552C161.349 23.2933 161.541 22.974 161.54 22.594C161.543 22.4417 161.511 22.2907 161.447 22.1525C161.382 22.0144 161.287 21.8928 161.169 21.797C160.926 21.5883 160.546 21.4283 160.03 21.317L158.12 20.914C157.044 20.69 156.249 20.3127 155.734 19.782C155.217 19.246 154.962 18.569 154.968 17.751C154.963 17.059 155.15 16.4597 155.529 15.953C155.914 15.4417 156.447 15.0477 157.127 14.771C157.812 14.4877 158.602 14.346 159.497 14.346C160.81 14.346 161.844 14.6263 162.598 15.187C163.357 15.7457 163.827 16.503 164.007 17.459ZM147.146 22.192L147.138 19H147.561L151.588 14.494H154.674L149.72 20.016H149.173L147.146 22.192ZM144.738 25.713V10.753H147.378V25.713H144.738ZM151.771 25.713L148.123 20.606L149.902 18.743L154.929 25.712L151.771 25.713ZM139.053 25.932C137.935 25.932 136.975 25.6863 136.172 25.195C135.375 24.7058 134.734 23.9986 134.326 23.157C133.898 22.285 133.684 21.2817 133.684 20.147C133.684 19.007 133.903 18.0013 134.341 17.13C134.75 16.2845 135.393 15.5743 136.194 15.084C136.996 14.592 137.944 14.346 139.039 14.346C139.948 14.346 140.753 14.514 141.453 14.85C142.158 15.1813 142.72 15.6513 143.139 16.26C143.556 16.8647 143.795 17.5713 143.854 18.38H141.33C141.239 17.8619 140.983 17.3871 140.6 17.027C140.22 16.6617 139.712 16.479 139.075 16.479C138.536 16.479 138.061 16.6253 137.652 16.918C137.244 17.206 136.926 17.62 136.697 18.16C136.473 18.7 136.361 19.3473 136.361 20.102C136.361 20.868 136.473 21.526 136.697 22.076C136.92 22.6207 137.233 23.042 137.638 23.34C138.046 23.6313 138.525 23.777 139.075 23.777C139.464 23.777 139.812 23.704 140.119 23.558C140.429 23.408 140.689 23.1913 140.898 22.908C141.107 22.6247 141.251 22.2817 141.33 21.879H143.854C143.805 22.6307 143.563 23.3573 143.153 23.989C142.743 24.6066 142.173 25.1015 141.504 25.421C140.808 25.7617 139.991 25.9327 139.053 25.932ZM127.839 25.931C126.744 25.931 125.796 25.69 124.994 25.208C124.191 24.7261 123.542 24.024 123.126 23.185C122.689 22.3183 122.47 21.3053 122.47 20.146C122.47 18.9867 122.689 17.971 123.126 17.099C123.541 16.257 124.19 15.5521 124.994 15.068C125.796 14.586 126.744 14.345 127.839 14.345C128.933 14.345 129.881 14.5863 130.683 15.069C131.486 15.5523 132.132 16.2581 132.543 17.101C132.986 17.9717 133.207 18.9867 133.207 20.146C133.207 21.306 132.986 22.319 132.543 23.185C132.13 24.0236 131.484 24.7258 130.683 25.208C129.881 25.6907 128.933 25.9317 127.839 25.931ZM127.852 23.815C128.445 23.815 128.942 23.652 129.341 23.326C129.74 22.994 130.037 22.5507 130.231 21.996C130.431 21.44 130.531 20.8213 130.53 20.14C130.53 19.4533 130.43 18.8323 130.231 18.277C130.037 17.717 129.74 17.2713 129.341 16.94C128.942 16.6093 128.446 16.444 127.852 16.444C127.244 16.444 126.739 16.6093 126.337 16.94C125.937 17.27 125.637 17.7157 125.438 18.277C125.237 18.877 125.139 19.507 125.147 20.14C125.147 20.8213 125.244 21.4397 125.438 21.995C125.637 22.551 125.937 22.9943 126.337 23.325C126.739 23.651 127.244 23.8143 127.852 23.815ZM121.519 10.752V25.712H118.878V10.752H121.519ZM107.339 25.712V10.752H109.981V16.347H110.09C110.227 16.0737 110.419 15.784 110.666 15.478C110.914 15.1647 111.25 14.899 111.673 14.681C112.097 14.457 112.637 14.345 113.292 14.345C114.159 14.345 114.939 14.5667 115.634 15.01C116.335 15.448 116.89 16.098 117.298 16.96C117.711 17.818 117.918 18.8703 117.918 20.117C117.918 21.349 117.716 22.3957 117.312 23.257C116.909 24.119 116.359 24.7767 115.663 25.23C114.96 25.6851 114.138 25.9214 113.301 25.909C112.659 25.909 112.126 25.802 111.702 25.588C111.313 25.4016 110.965 25.1383 110.68 24.814C110.453 24.5455 110.255 24.2539 110.09 23.944H109.936V25.712H107.339ZM109.929 20.102C109.929 20.8273 110.031 21.4627 110.236 22.008C110.446 22.5533 110.745 22.9793 111.134 23.286C111.527 23.5887 112.004 23.74 112.563 23.74C113.146 23.74 113.635 23.584 114.029 23.272C114.422 22.956 114.719 22.525 114.919 21.979C115.124 21.4303 115.227 20.8043 115.227 20.101C115.227 19.405 115.127 18.7867 114.926 18.246C114.727 17.706 114.431 17.2823 114.037 16.975C113.642 16.6683 113.151 16.515 112.563 16.515C111.998 16.515 111.519 16.6633 111.125 16.96C110.731 17.258 110.432 17.6747 110.228 18.21C110.029 18.746 109.929 19.3773 109.929 20.102ZM98.6289 19.137V25.711H95.9879V14.491H98.5119V16.4H98.6429C98.889 15.7851 99.3198 15.2617 99.8759 14.902C100.444 14.532 101.147 14.3467 101.984 14.346C102.757 14.346 103.431 14.5117 104.005 14.843C104.586 15.1778 105.054 15.6794 105.347 16.283C105.668 16.911 105.826 17.673 105.822 18.569V25.713H103.181V18.98C103.181 18.2293 102.987 17.642 102.598 17.218C102.213 16.794 101.68 16.5823 100.999 16.583C100.537 16.583 100.126 16.6853 99.7669 16.89C99.4084 17.0923 99.1165 17.3946 98.9269 17.76C98.7282 18.14 98.6289 18.6 98.6289 19.14M90.3029 25.933C89.1842 25.933 88.2239 25.6873 87.4219 25.196C86.6243 24.7069 85.9834 23.9997 85.5749 23.158C85.1469 22.286 84.9329 21.2827 84.9329 20.148C84.9329 19.008 85.1522 18.0023 85.5909 17.131C85.9995 16.2857 86.6423 15.5755 87.4429 15.085C88.2462 14.593 89.1949 14.347 90.2889 14.347C91.1976 14.347 92.0019 14.515 92.7019 14.851C93.4086 15.1823 93.9706 15.6523 94.3879 16.261C94.8066 16.8657 95.0449 17.5723 95.1029 18.381H92.5789C92.4908 17.8623 92.2346 17.3869 91.8499 17.028C91.4699 16.6627 90.9616 16.48 90.3249 16.48C89.7849 16.48 89.3106 16.6263 88.9019 16.919C88.4932 17.207 88.1749 17.621 87.9469 18.161C87.7236 18.701 87.6119 19.3483 87.6119 20.103C87.6119 20.869 87.7236 21.527 87.9469 22.077C88.1689 22.6217 88.4826 23.043 88.8879 23.341C89.2959 23.6323 89.7752 23.778 90.3259 23.778C90.6853 23.7839 91.0414 23.7091 91.3679 23.559C91.6786 23.409 91.9389 23.1923 92.1489 22.909C92.3576 22.6257 92.5009 22.2827 92.5789 21.88H95.1029C95.0551 22.632 94.8136 23.3589 94.4019 23.99C93.9902 24.6059 93.4212 25.1003 92.7539 25.422C92.0592 25.7627 91.2422 25.9337 90.3029 25.933ZM77.9179 25.91C77.0359 25.91 76.2479 25.6837 75.5539 25.231C74.8586 24.7777 74.3089 24.1203 73.9049 23.259C73.5016 22.3963 73.2996 21.3493 73.2989 20.118C73.2989 18.8707 73.5036 17.8183 73.9129 16.961C74.3262 16.1003 74.8826 15.4503 75.5819 15.011C76.2825 14.5682 77.0961 14.3372 77.9249 14.346C78.5809 14.346 79.1209 14.458 79.5449 14.682C79.9669 14.9 80.3022 15.1657 80.5509 15.479C80.7996 15.7857 80.9919 16.0757 81.1279 16.349H81.2369V10.753H83.8859V25.713H81.2869V23.945H81.1259C80.9631 24.2566 80.7652 24.5485 80.5359 24.815C80.2509 25.1393 79.9033 25.4026 79.5139 25.589C79.0906 25.803 78.5586 25.91 77.9179 25.91ZM78.6529 23.741C79.2122 23.741 79.6886 23.5897 80.0819 23.287C80.4759 22.9803 80.7756 22.5543 80.9809 22.009C81.1849 21.4643 81.2869 20.8287 81.2869 20.102C81.2869 19.3773 81.1846 18.7473 80.9799 18.212C80.7806 17.6753 80.4839 17.2587 80.0899 16.962C79.7012 16.6653 79.2219 16.517 78.6519 16.517C78.0639 16.517 77.5729 16.67 77.1789 16.976C76.7856 17.284 76.4892 17.708 76.2899 18.248C76.0906 18.788 75.9909 19.406 75.9909 20.102C75.9909 20.8053 76.0906 21.4313 76.2899 21.98C76.4939 22.526 76.7929 22.957 77.1869 23.273C77.5849 23.585 78.0736 23.741 78.6529 23.741ZM66.4729 25.94C65.8131 25.9525 65.1582 25.8229 64.5529 25.56C64.0048 25.3177 63.5386 24.9217 63.2109 24.42C62.8856 23.9193 62.7229 23.301 62.7229 22.565C62.7229 21.9317 62.8396 21.4083 63.0729 20.995C63.3062 20.5803 63.6246 20.249 64.0279 20.001C64.4519 19.7455 64.9121 19.5556 65.3929 19.438C65.9136 19.306 66.4412 19.2113 66.9759 19.154C67.509 19.0994 68.0413 19.0384 68.5729 18.971C68.9822 18.911 69.2789 18.823 69.4629 18.707C69.6529 18.5857 69.7479 18.3987 69.7479 18.146V18.102C69.7479 17.552 69.5849 17.1253 69.2589 16.822C68.9322 16.5207 68.4626 16.37 67.8499 16.37C67.2032 16.37 66.6906 16.5113 66.3119 16.794C65.9359 17.0773 65.6829 17.4107 65.5529 17.794L63.0879 17.444C63.2812 16.762 63.6022 16.192 64.0509 15.734C64.5094 15.2649 65.0714 14.9098 65.6919 14.697C66.3809 14.4571 67.1064 14.3386 67.8359 14.347C68.3752 14.347 68.9129 14.4103 69.4489 14.537C69.9711 14.6574 70.4675 14.8701 70.9149 15.165C71.3576 15.4523 71.7129 15.844 71.9809 16.34C72.2516 16.8373 72.3876 17.459 72.3889 18.205V25.713H69.8489V24.172H69.7619C69.3868 24.885 68.7565 25.4303 67.9969 25.699C67.5636 25.859 67.0556 25.94 66.4729 25.94ZM67.1579 23.996C67.6879 23.996 68.1476 23.8913 68.5369 23.682C68.9072 23.4862 69.217 23.193 69.4329 22.834C69.6453 22.4893 69.7565 22.0919 69.7539 21.687V20.365C69.6254 20.4532 69.4822 20.5175 69.3309 20.555C69.1156 20.6182 68.8969 20.6693 68.6759 20.708C68.4319 20.7513 68.1909 20.7903 67.9529 20.825C67.7136 20.8597 67.5069 20.889 67.3329 20.913C66.9711 20.9584 66.6159 21.0467 66.2749 21.176C65.9889 21.28 65.7349 21.456 65.5379 21.686C65.3579 21.9007 65.2679 22.1787 65.2679 22.52C65.2679 23.0073 65.4456 23.375 65.8009 23.623C66.1562 23.871 66.6086 23.9953 67.1579 23.996ZM54.5729 19.137V25.712H51.9319V10.752H54.5149V16.4H54.6459C54.8894 15.7877 55.3149 15.2648 55.8649 14.902C56.4182 14.532 57.1236 14.3467 57.9809 14.346C58.7589 14.346 59.4372 14.509 60.0159 14.835C60.5977 15.1654 61.0654 15.6648 61.3569 16.267C61.6782 16.8957 61.8389 17.663 61.8389 18.569V25.713H59.1979V18.976C59.1979 18.222 59.0036 17.635 58.6149 17.215C58.2302 16.7923 57.6899 16.581 56.9939 16.581C56.5279 16.581 56.1099 16.683 55.7399 16.887C55.3749 17.087 55.0759 17.389 54.8799 17.756C54.6739 18.1367 54.5716 18.5963 54.5729 19.137ZM48.1109 14.866C48.0422 14.2273 47.7556 13.73 47.2509 13.374C46.7496 13.0193 46.0976 12.842 45.2949 12.842C44.7302 12.842 44.2469 12.927 43.8449 13.097C43.4402 13.2677 43.1309 13.499 42.9169 13.791C42.7029 14.081 42.5869 14.431 42.5889 14.792C42.5889 15.104 42.6592 15.374 42.7999 15.602C42.9459 15.8313 43.1429 16.0263 43.3909 16.187C43.6389 16.3423 43.9136 16.474 44.2149 16.582C44.5169 16.688 44.8209 16.778 45.1269 16.852L46.5279 17.203C47.0849 17.3317 47.6291 17.5104 48.1539 17.737C48.662 17.9498 49.1366 18.2351 49.5629 18.584C49.9809 18.9253 50.3116 19.3367 50.5549 19.818C50.7989 20.3 50.9206 20.865 50.9199 21.513C50.9199 22.3903 50.6962 23.162 50.2489 23.828C49.8022 24.4913 49.1556 25.01 48.3089 25.384C47.4649 25.754 46.4462 25.9393 45.2529 25.94C44.0896 25.94 43.0796 25.76 42.2229 25.4C41.3729 25.04 40.7069 24.514 40.2249 23.822C39.7489 23.13 39.4912 22.2873 39.4519 21.294H42.1149C42.1529 21.8147 42.3132 22.2477 42.5959 22.593C42.8786 22.9397 43.2459 23.198 43.6979 23.368C44.1552 23.54 44.6659 23.6253 45.2299 23.624C45.8179 23.624 46.3336 23.5367 46.7769 23.362C47.2229 23.182 47.5729 22.9333 47.8269 22.616C48.0789 22.296 48.2149 21.899 48.2119 21.491C48.2079 21.1017 48.0942 20.7803 47.8709 20.527C47.6469 20.2697 47.3332 20.0553 46.9299 19.884C46.4765 19.6899 46.0079 19.5333 45.5289 19.416L43.8289 18.979C42.5989 18.6617 41.6259 18.1817 40.9099 17.539C40.1999 16.891 39.8449 16.031 39.8449 14.959C39.8449 14.079 40.0836 13.3077 40.5609 12.645C41.0422 11.983 41.6962 11.4687 42.5229 11.102C43.3496 10.734 44.2859 10.5493 45.3319 10.548C46.3919 10.548 47.3209 10.7327 48.1189 11.102C48.9209 11.4687 49.5509 11.978 50.0089 12.63C50.4662 13.2767 50.7016 14.022 50.7149 14.866H48.1109Z" fill="white"/>
</g>
<defs>
<clipPath id="clip0_32_11">
<rect width="218" height="36" fill="white"/>
</clipPath>
</defs>
</svg>
