<svg width="100" height="100" viewBox="0 0 100 100" fill="none" xmlns="http://www.w3.org/2000/svg">
<rect width="100" height="100" rx="14" fill="#2A3033"/>
<g transform="translate(19.85 17) scale(0.4567)">
<path fill="white" stroke="white" stroke-width="0.7" stroke-linejoin="round" d="M 0.35 7.55 L 0.35 0.35 L 86.55 0.35 C 110.55 1.35, 131.25 24.05, 131.25 47.55 C 131.25 71.05, 112.55 88.55, 93.55 94.35 L 131.75 144.15 L 101.55 144.15 C 96.55 144.15, 94.55 141.55, 93.25 138.45 L 63.95 104.05 C 60.55 98.75, 56.55 97.35, 51.55 97.35 L 43.05 97.35 C 35.05 98.05, 28.85 102.55, 28.85 112.05 L 28.85 144.15 L 0.35 144.15 L 0.35 106.05 C 0.35 88.05, 21.55 71.05, 32.55 69.65 L 86.55 66.55 C 96.55 65.55, 102.15 58.55, 102.15 47.55 C 102.15 36.55, 96.05 30.35, 84.55 29.25 L 28.55 29.05 C 16.55 28.05, 3.05 17.55, 0.35 7.55 Z"/>
</g>
</svg>
